# Blender v2.76 (sub 0) OBJ File: 'empty.blend'
# www.blender.org
mtllib ske_box.mtl
o ske_box
v -0.250000 -1.000000 0.250000
v -0.250000 1.000000 0.250000
v -0.250000 -1.000000 -0.250000
v -0.250000 1.000000 -0.250000
v 0.250000 -1.000000 0.250000
v 0.250000 1.000000 0.250000
v 0.250000 -1.000000 -0.250000
v 0.250000 1.000000 -0.250000
v -0.250000 -0.500000 0.250000
v -0.250000 0.000000 0.250000
v -0.250000 0.500000 0.250000
v -0.250000 0.500000 -0.250000
v -0.250000 0.000000 -0.250000
v -0.250000 -0.500000 -0.250000
v 0.250000 0.500000 -0.250000
v 0.250000 0.000000 -0.250000
v 0.250000 -0.500000 -0.250000
v 0.250000 0.500000 0.250000
v 0.250000 0.000000 0.250000
v 0.250000 -0.500000 0.250000
vn -1.000000 0.000000 0.000000
vn 0.000000 0.000000 -1.000000
vn 1.000000 0.000000 0.000000
vn 0.000000 0.000000 1.000000
vn 0.000000 -1.000000 0.000000
vn 0.000000 1.000000 0.000000
usemtl ske_box_material
s off
f 14//1 3//1 1//1
f 17//2 7//2 3//2
f 20//3 5//3 7//3
f 9//4 1//4 5//4
f 3//5 7//5 5//5
f 8//6 4//6 2//6
f 2//4 11//4 18//4
f 11//4 10//4 19//4
f 10//4 9//4 20//4
f 6//3 18//3 15//3
f 18//3 19//3 16//3
f 19//3 20//3 17//3
f 8//2 15//2 12//2
f 15//2 16//2 13//2
f 16//2 17//2 14//2
f 4//1 12//1 11//1
f 12//1 13//1 10//1
f 13//1 14//1 9//1
f 9//1 14//1 1//1
f 14//2 17//2 3//2
f 17//3 20//3 7//3
f 20//4 9//4 5//4
f 1//5 3//5 5//5
f 6//6 8//6 2//6
f 6//4 2//4 18//4
f 18//4 11//4 19//4
f 19//4 10//4 20//4
f 8//3 6//3 15//3
f 15//3 18//3 16//3
f 16//3 19//3 17//3
f 4//2 8//2 12//2
f 12//2 15//2 13//2
f 13//2 16//2 14//2
f 2//1 4//1 11//1
f 11//1 12//1 10//1
f 10//1 13//1 9//1
