mtllib dock.mtl
o dock
v -0.021449 0.369517 0.370368
v -0.021449 -0.371693 0.370368
v -0.021449 0.369517 -0.371055
v -0.021449 -0.371693 -0.371055
v -0.021449 0.421415 0.422267
v -0.021449 -0.423592 0.422267
v -0.021449 0.421415 -0.422953
v -0.021449 -0.423592 -0.422953
v 0.024237 0.369517 -0.371055
v 0.024237 0.369517 0.370368
v 0.024236 -0.371693 0.370368
v 0.024236 -0.371693 -0.371055
v 0.024237 0.421415 -0.422953
v 0.024237 0.421415 0.422267
v 0.024236 -0.423592 0.422267
v 0.024236 -0.423592 -0.422953
v -0.370636 -0.371693 -0.021449
v 0.371343 -0.371693 -0.021449
v -0.370636 0.369517 -0.021449
v 0.371343 0.369517 -0.021449
v -0.422535 -0.423592 -0.021449
v 0.423242 -0.423592 -0.021449
v -0.422535 0.421415 -0.021449
v 0.423242 0.421415 -0.021449
v -0.370636 0.369517 0.024237
v -0.370636 -0.371693 0.024236
v 0.371343 -0.371693 0.024236
v 0.371343 0.369517 0.024237
v -0.422535 0.421415 0.024237
v -0.422535 -0.423592 0.024236
v 0.423242 -0.423592 0.024236
v 0.423242 0.421415 0.024237
v -0.370636 -0.021449 0.370368
v 0.371343 -0.021449 0.370368
v -0.370636 -0.021449 -0.371055
v 0.371343 -0.021449 -0.371055
v -0.422535 -0.021449 0.422267
v 0.423242 -0.021449 0.422267
v -0.422535 -0.021449 -0.422953
v 0.423242 -0.021449 -0.422953
v -0.370636 0.024236 -0.371055
v -0.370636 0.024236 0.370368
v 0.371343 0.024236 0.370368
v 0.371343 0.024236 -0.371055
v -0.422535 0.024236 -0.422953
v -0.422535 0.024236 0.422267
v 0.423242 0.024236 0.422267
v 0.423242 0.024236 -0.422953
v -0.456576 -0.070784 0.070784
v -0.456576 0.070784 0.070784
v -0.456576 0.070784 -0.070784
v -0.256369 -0.000000 0.000000
v -0.456576 -0.070784 -0.070784
v 0.457283 0.070784 0.070784
v 0.457283 -0.070784 0.070784
v 0.457283 -0.070784 -0.070784
v 0.257076 0.000000 0.000000
v 0.457283 0.070784 -0.070784
v -0.070784 0.070784 -0.456994
v 0.070784 0.070784 -0.456994
v 0.070784 -0.070784 -0.456994
v 0.000000 -0.000000 -0.256788
v -0.070784 -0.070784 -0.456994
v -0.070784 -0.070784 0.456308
v 0.070784 -0.070784 0.456308
v 0.070784 0.070784 0.456308
v 0.000000 0.000000 0.256101
v -0.070784 0.070784 0.456308
v -0.070784 -0.457633 -0.070784
v 0.070784 -0.457633 -0.070784
v 0.070784 -0.457633 0.070784
v 0.000000 -0.257426 0.000000
v -0.070784 -0.457633 0.070784
v -0.070784 0.455456 0.070784
v 0.070784 0.455456 0.070784
v 0.070784 0.455456 -0.070784
v 0.000000 0.255250 0.000000
v -0.070784 0.455456 -0.070784
vn -1.000000 -0.000000 0.000000
vn 1.000000 0.000000 0.000000
vn 0.000000 -1.000000 0.000000
vn 0.000000 1.000000 0.000000
vn 0.000000 0.000000 -1.000000
vn 0.000000 0.000000 1.000000
vn 0.333300 -0.000000 -0.942800
vn 0.333300 0.000000 0.942800
vn 0.333300 -0.942800 0.000000
vn 0.333300 0.942800 -0.000000
vn -0.333300 0.000000 -0.942800
vn -0.333300 0.000000 0.942800
vn -0.333300 0.942800 0.000000
vn -0.333300 -0.942800 -0.000000
vn -0.000000 -0.942800 0.333300
vn 0.000000 0.942800 0.333300
vn -0.942800 0.000000 0.333300
vn 0.942800 -0.000000 0.333300
vn 0.000000 0.942800 -0.333300
vn 0.000000 -0.942800 -0.333300
vn -0.942800 0.000000 -0.333300
vn 0.942800 0.000000 -0.333300
vn 0.000000 0.333300 0.942800
vn 0.000000 0.333300 -0.942800
vn -0.942800 0.333300 0.000000
vn 0.942800 0.333300 0.000000
vn -0.000000 -0.333300 -0.942800
vn 0.000000 -0.333300 0.942800
vn -0.942800 -0.333300 0.000000
vn 0.942800 -0.333300 0.000000
usemtl dock_material
s off
f 8//1 6//1 2//1
f 5//1 7//1 3//1
f 3//1 7//1 8//1
f 6//1 5//1 1//1
f 11//2 15//2 16//2
f 9//2 13//2 14//2
f 12//2 16//2 13//2
f 10//2 14//2 15//2
f 8//3 16//3 15//3
f 5//4 14//4 13//4
f 2//4 11//4 12//4
f 3//3 9//3 10//3
f 7//5 13//5 16//5
f 6//6 15//6 14//6
f 4//6 12//6 9//6
f 1//5 10//5 11//5
f 20//5 24//5 22//5
f 17//5 21//5 23//5
f 19//5 23//5 24//5
f 18//5 22//5 21//5
f 27//6 31//6 32//6
f 25//6 29//6 30//6
f 28//6 32//6 29//6
f 26//6 30//6 31//6
f 24//2 32//2 31//2
f 21//1 30//1 29//1
f 18//1 27//1 28//1
f 19//2 25//2 26//2
f 23//4 29//4 32//4
f 22//3 31//3 30//3
f 20//3 28//3 25//3
f 17//4 26//4 27//4
f 40//3 38//3 34//3
f 37//3 39//3 35//3
f 35//3 39//3 40//3
f 38//3 37//3 33//3
f 43//4 47//4 48//4
f 41//4 45//4 46//4
f 44//4 48//4 45//4
f 42//4 46//4 47//4
f 40//2 48//2 47//2
f 37//1 46//1 45//1
f 34//1 43//1 44//1
f 35//2 41//2 42//2
f 39//5 45//5 48//5
f 38//6 47//6 46//6
f 36//6 44//6 41//6
f 33//5 42//5 43//5
f 51//7 52//7 53//7
f 49//8 52//8 50//8
f 53//9 52//9 49//9
f 50//10 52//10 51//10
f 50//1 51//1 53//1
f 56//11 57//11 58//11
f 54//12 57//12 55//12
f 58//13 57//13 54//13
f 55//14 57//14 56//14
f 55//2 56//2 58//2
f 61//15 62//15 63//15
f 59//16 62//16 60//16
f 63//17 62//17 59//17
f 60//18 62//18 61//18
f 60//5 61//5 63//5
f 66//19 67//19 68//19
f 64//20 67//20 65//20
f 68//21 67//21 64//21
f 65//22 67//22 66//22
f 65//6 66//6 68//6
f 71//23 72//23 73//23
f 69//24 72//24 70//24
f 73//25 72//25 69//25
f 70//26 72//26 71//26
f 70//3 71//3 73//3
f 76//27 77//27 78//27
f 74//28 77//28 75//28
f 78//29 77//29 74//29
f 75//30 77//30 76//30
f 75//4 76//4 78//4
f 4//1 8//1 2//1
f 1//1 5//1 3//1
f 4//1 3//1 8//1
f 2//1 6//1 1//1
f 12//2 11//2 16//2
f 10//2 9//2 14//2
f 9//2 12//2 13//2
f 11//2 10//2 15//2
f 6//3 8//3 15//3
f 7//4 5//4 13//4
f 4//4 2//4 12//4
f 1//3 3//3 10//3
f 8//5 7//5 16//5
f 5//6 6//6 14//6
f 3//6 4//6 9//6
f 2//5 1//5 11//5
f 18//5 20//5 22//5
f 19//5 17//5 23//5
f 20//5 19//5 24//5
f 17//5 18//5 21//5
f 28//6 27//6 32//6
f 26//6 25//6 30//6
f 25//6 28//6 29//6
f 27//6 26//6 31//6
f 22//2 24//2 31//2
f 23//1 21//1 29//1
f 20//1 18//1 28//1
f 17//2 19//2 26//2
f 24//4 23//4 32//4
f 21//3 22//3 30//3
f 19//3 20//3 25//3
f 18//4 17//4 27//4
f 36//3 40//3 34//3
f 33//3 37//3 35//3
f 36//3 35//3 40//3
f 34//3 38//3 33//3
f 44//4 43//4 48//4
f 42//4 41//4 46//4
f 41//4 44//4 45//4
f 43//4 42//4 47//4
f 38//2 40//2 47//2
f 39//1 37//1 45//1
f 36//1 34//1 44//1
f 33//2 35//2 42//2
f 40//5 39//5 48//5
f 37//6 38//6 46//6
f 35//6 36//6 41//6
f 34//5 33//5 43//5
f 49//1 50//1 53//1
f 54//2 55//2 58//2
f 59//5 60//5 63//5
f 64//6 65//6 68//6
f 69//3 70//3 73//3
f 74//4 75//4 78//4
